<svg xmlns="http://www.w3.org/2000/svg" width="15" height="11" viewBox="0 0 15 11">
  <metadata><?xpacket begin="﻿" id="W5M0MpCehiHzreSzNTczkc9d"?>
<x:xmpmeta xmlns:x="adobe:ns:meta/" x:xmptk="Adobe XMP Core 5.6-c142 79.160924, 2017/07/13-01:06:39        ">
   <rdf:RDF xmlns:rdf="http://www.w3.org/1999/02/22-rdf-syntax-ns#">
      <rdf:Description rdf:about=""/>
   </rdf:RDF>
</x:xmpmeta>
                                                                                                    
                                                                                                    
                                                                                                    
                                                                                                    
                                                                                                    
                                                                                                    
                                                                                                    
                                                                                                    
                                                                                                    
                                                                                                    
                                                                                                    
                                                                                                    
                                                                                                    
                                                                                                    
                                                                                                    
                                                                                                    
                                                                                                    
                                                                                                    
                                                                                                    
                                                                                                    
                           
<?xpacket end="w"?></metadata>
<defs>
    <style>
      .cls-1 {
        fill: #fff;
        fill-rule: evenodd;
      }
    </style>
  </defs>
  <path class="cls-1" d="M509.931,2024.01a0.673,0.673,0,0,0,.425-0.16l5.434-4.92c0.007,0,.013-0.01.019-0.01l0.031-.03v-0.01h0a0.567,0.567,0,0,0,.138-0.47,0.6,0.6,0,0,0-.155-0.31l-0.033-.03-5.435-4.91a0.65,0.65,0,0,0-.874.02,0.578,0.578,0,0,0,.024.84l4.311,3.89H501.631a0.608,0.608,0,0,0-.617.59,0.6,0.6,0,0,0,.617.59h12.186l-4.311,3.9a0.566,0.566,0,0,0-.024.83A0.608,0.608,0,0,0,509.931,2024.01Z" transform="translate(-501 -2013)"/>
</svg>
